<svg width="16" height="16" viewBox="0 0 16 16" fill="none" xmlns="http://www.w3.org/2000/svg">
<path fill-rule="evenodd" clip-rule="evenodd" d="M15.5762 4.48016C15.8079 4.20202 15.8079 3.79801 15.5762 3.51988L13.0762 0.51988C12.811 0.201673 12.3381 0.15868 12.0199 0.423853C11.7017 0.689026 11.6587 1.16195 11.9238 1.48016L13.3987 3.25002H10C8.48122 3.25002 7.25 4.48124 7.25 6.00002L7.25 8.66669C7.25 9.0809 7.58579 9.41669 8 9.41669C8.41421 9.41669 8.75 9.0809 8.75 8.66669V6.00002C8.75 5.30966 9.30964 4.75002 10 4.75002L13.3987 4.75002L11.9238 6.51988C11.6587 6.83809 11.7017 7.31101 12.0199 7.57618C12.3381 7.84136 12.811 7.79836 13.0762 7.48016L15.5762 4.48016ZM1.75 3.00002C1.75 2.30966 2.30964 1.75002 3 1.75002H6.00008C6.41429 1.75002 6.75008 1.41423 6.75008 1.00002C6.75008 0.585805 6.41429 0.250019 6.00008 0.250019H3C1.48122 0.250019 0.25 1.48124 0.25 3.00002V13C0.25 14.5188 1.48122 15.75 3 15.75H13C14.5188 15.75 15.75 14.5188 15.75 13V9.00002C15.75 8.5858 15.4142 8.25002 15 8.25002C14.5858 8.25002 14.25 8.5858 14.25 9.00002V13C14.25 13.6904 13.6904 14.25 13 14.25H3C2.30964 14.25 1.75 13.6904 1.75 13V3.00002Z" fill="white"/>
</svg>
