<svg width="18" height="4" viewBox="0 0 18 4" fill="none" xmlns="http://www.w3.org/2000/svg">
<path fill-rule="evenodd" clip-rule="evenodd" d="M14 2C14 3.1 14.9 4 16 4C16.5304 4 17.0391 3.78929 17.4142 3.41421C17.7893 3.03914 18 2.53043 18 2C18 1.46957 17.7893 0.96086 17.4142 0.585787C17.0391 0.210714 16.5304 0 16 0C15.4696 0 14.9609 0.210714 14.5858 0.585787C14.2107 0.96086 14 1.46957 14 2ZM11 2C11 1.46957 10.7893 0.96086 10.4142 0.585787C10.0391 0.210714 9.53043 0 9 0C8.46957 0 7.96086 0.210714 7.58579 0.585787C7.21071 0.96086 7 1.46957 7 2C7 3.1 7.9 4 9 4C9.53043 4 10.0391 3.78929 10.4142 3.41421C10.7893 3.03914 11 2.53043 11 2ZM4 2C4 1.46957 3.78929 0.96086 3.41421 0.585787C3.03914 0.210714 2.53043 0 2 0C1.46957 0 0.960859 0.210714 0.585786 0.585787C0.210714 0.96086 0 1.46957 0 2C0 3.1 0.9 4 2 4C2.53043 4 3.03914 3.78929 3.41421 3.41421C3.78929 3.03914 4 2.53043 4 2Z" fill="#71717A"/>
</svg>
