<svg xmlns="http://www.w3.org/2000/svg" fill="none" viewBox="0 0 375 667">
  <g clip-path="url(#a)">
    <path fill="#403F3F" d="m356.003 26.0911-25.501 53.5941c-1.899 3.9897-6.672 5.6851-10.661 3.7867L266.246 57.971c-3.989-1.8983-5.685-6.6715-3.786-10.6612l25.501-53.59413c1.898-3.98967 6.671-5.68507 10.661-3.78667l53.594 25.5009c3.99 1.8983 5.685 6.6715 3.787 10.6612ZM113.619 369.016l59.352-27.907c3.224-1.516 6.673 1.623 5.465 4.976l-31.445 87.258c-1.208 3.353-5.866 3.571-7.382.346l-27.908-59.351c-.94-1.999-.081-4.382 1.918-5.322ZM146.089 618.725c-6.306-3.321-5.449-12.609 1.358-14.72l76.208-23.634c4.22-1.308 8.702 1.052 10.011 5.272l23.634 76.208c2.111 6.807-5.062 12.769-11.368 9.448l-99.843-52.574ZM370.145 398.207c-36.234-17.867-80.054-3.056-97.874 33.082l-9.369 18.998c-1.954 3.963-.325 8.759 3.637 10.713l77.502 38.217c3.963 1.954 8.759.326 10.713-3.637l38.097-77.256c1.954-3.963.325-8.76-3.637-10.714l-19.069-9.403ZM84.3012 133.404c2.9658-3.275 2.2303-8.321-1.3015-10.976L27.6302 80.8073c-3.5318-2.6548-8.547-1.9439-11.2018 1.5878L-28.7294 142.47c-.7015.933-.5137 2.258.4196 2.96 35.36259 26.582 83.9407 19.634 112.611-12.026Z"/>
    <circle cx="-9.5" cy="447.5" r="62.5" fill="#403F3F"/>
    <circle cx="225" cy="188" r="32" fill="#403F3F"/>
    <path fill="#767676" d="m201.235 251.375 5.246-28.108c.406-2.172 2.495-3.603 4.666-3.198l82.573 15.42c2.172.405 3.603 2.495 3.198 4.666l-15.42 82.573c-.405 2.171-2.495 3.603-4.666 3.198l-82.564-15.419c-2.173-.405-3.605-2.497-3.197-4.67l2.095-11.228-8.755 3.344-.183.981-1.019 5.425c-1.225 6.519 3.07 12.795 9.59 14.012l82.564 15.419c6.515 1.216 12.783-3.079 13.999-9.594l15.42-82.572c1.216-6.515-3.079-12.783-9.593-13.999l-82.573-15.42c-6.515-1.217-12.782 3.079-13.999 9.593l-3.171 17.002c2.174 3.995 4.113 8.191 5.789 12.575Z"/>
    <path stroke="#767676" stroke-linecap="round" stroke-linejoin="round" stroke-width="4" d="M242.753 259.561c-.741 3.967-4.557 6.582-8.524 5.841-3.967-.741-6.582-4.557-5.841-8.524.741-3.967 4.557-6.582 8.524-5.841 3.967.741 6.582 4.557 5.841 8.524ZM263.99 297.65l-9.078-23.746c-.208-.491-.532-.924-.945-1.26-.413-.337-.901-.567-1.423-.67-.522-.104-1.062-.078-1.572.075s-.975.429-1.355.803l-10.833 10.654-4.5-5.252c-.296-.344-.66-.623-1.069-.819-.409-.196-.854-.304-1.307-.317-.453-.014-.904.067-1.324.238-.421.171-.801.427-1.117.753L218.5 289.153l45.49 8.497Z"/>
    <path stroke="#767676" stroke-width="8" d="M191.994 253.819c-14.075-36.853-55.359-55.318-92.212-41.244l-19.2177 7.339c-4.1275 1.577-6.1956 6.201-4.6193 10.328l29.969 78.472c1.576 4.128 6.2 6.196 10.328 4.619l78.472-29.969c4.127-1.576 6.195-6.2 4.619-10.327l-7.339-19.218Z"/>
    <path stroke="#767676" stroke-linecap="round" stroke-linejoin="round" stroke-width="4" d="M127.029 244.577c1.439 3.77-.45 7.994-4.22 9.433-3.77 1.44-7.993-.449-9.433-4.219-1.439-3.77.45-7.993 4.22-9.433 3.77-1.44 7.993.449 9.433 4.219ZM165.031 265.97l-20.143-15.511c-.433-.31-.936-.51-1.464-.581-.528-.071-1.064-.012-1.564.172-.499.184-.945.488-1.3.885-.355.397-.608.875-.736 1.392l-3.676 14.743-6.58-2.129c-.432-.139-.888-.187-1.339-.14-.451.047-.887.187-1.281.412-.393.225-.735.53-1.005.895-.269.365-.459.782-.559 1.226l-3.585 15.145 43.232-16.509Z"/>
  </g>
  <defs>
    <clipPath id="a">
      <path fill="#fff" d="M0 0h375v667H0z"/>
    </clipPath>
  </defs>
</svg>
