<svg width="16" height="16" viewBox="0 0 16 16" fill="none" xmlns="http://www.w3.org/2000/svg">
<path fill-rule="evenodd" clip-rule="evenodd" d="M15.75 1C15.75 0.585791 15.4142 0.250005 15 0.250005L11 0.25C10.5858 0.25 10.25 0.585785 10.25 0.999999C10.25 1.41421 10.5858 1.75 11 1.75L13.1893 1.75L7.46966 7.46967C7.17677 7.76257 7.17677 8.23744 7.46966 8.53033C7.76256 8.82323 8.23743 8.82323 8.53032 8.53033L14.25 2.81066V4.99999C14.25 5.41421 14.5858 5.74999 15 5.74999C15.4142 5.74999 15.75 5.41421 15.75 4.99999V1ZM3.00003 0.250035C1.48125 0.250035 0.250033 1.48125 0.250029 3.00003L0.25 13C0.249996 14.5188 1.48121 15.75 3 15.75H13C14.5188 15.75 15.75 14.5188 15.75 13V9C15.75 8.58579 15.4142 8.25 15 8.25C14.5858 8.25 14.25 8.58579 14.25 9V13C14.25 13.6904 13.6904 14.25 13 14.25H3C2.30964 14.25 1.75 13.6904 1.75 13L1.75003 3.00003C1.75003 2.30968 2.30968 1.75004 3.00003 1.75004H6.99999C7.41421 1.75004 7.74999 1.41425 7.74999 1.00004C7.74999 0.585822 7.41421 0.250035 6.99999 0.250035H3.00003Z" fill="white"/>
</svg>
