<svg width="12" height="12" viewBox="0 0 12 12" fill="none" xmlns="http://www.w3.org/2000/svg">
<path d="M2.03033 0.96967C1.73744 0.676777 1.26256 0.676777 0.96967 0.96967C0.676777 1.26256 0.676777 1.73744 0.96967 2.03033L4.93934 6L0.969672 9.96967C0.676778 10.2626 0.676779 10.7374 0.969671 11.0303C1.26256 11.3232 1.73744 11.3232 2.03033 11.0303L6 7.06066L9.96967 11.0303C10.2626 11.3232 10.7374 11.3232 11.0303 11.0303C11.3232 10.7374 11.3232 10.2626 11.0303 9.96967L7.06066 6L11.0303 2.03033C11.3232 1.73744 11.3232 1.26256 11.0303 0.969671C10.7374 0.676777 10.2626 0.676777 9.96967 0.969671L6 4.93934L2.03033 0.96967Z" fill="white"/>
</svg>
