<svg width="200" height="80" viewBox="0 0 200 80" fill="none" xmlns="http://www.w3.org/2000/svg">
<g id="NewSchLauchLogoSplit" clip-path="url(#clip0_8716_10839)">
<g id="Clip path group">
<g id="Group">
<g id="Group_2">
<path id="Vector" d="M59.46 50.57C59.37 50.37 59.26 50.19 59.13 50.01C59.08 49.94 59.02 49.89 58.95 49.85C58.88 49.81 58.8 49.79 58.72 49.79C58.45 49.79 58.26 49.99 58.26 50.26C58.26 50.35 58.29 50.44 58.33 50.52L58.42 50.69C58.42 50.69 58.43 50.75 58.41 50.76C58.41 50.76 58.4 50.76 58.39 50.76C58.38 50.76 58.38 50.76 58.37 50.76C58.36 50.76 58.36 50.76 58.35 50.75C58.35 50.75 58.35 50.74 58.34 50.73C58.32 50.69 58.24 50.57 58.24 50.57C58.18 50.48 58.1 50.4 58 50.36C57.9 50.32 57.79 50.32 57.68 50.35C57.58 50.38 57.49 50.45 57.42 50.53C57.36 50.62 57.33 50.72 57.33 50.83C57.33 50.91 57.35 50.98 57.38 51.05C57.39 51.08 57.42 51.13 57.43 51.16C57.44 51.19 57.44 51.22 57.42 51.23C57.42 51.23 57.41 51.23 57.4 51.23C57.4 51.23 57.39 51.23 57.38 51.23C57.38 51.23 57.37 51.23 57.36 51.23C57.36 51.23 57.36 51.22 57.35 51.21C57.33 51.18 57.29 51.12 57.27 51.09C57.21 51.01 57.13 50.95 57.04 50.92C56.95 50.89 56.85 50.89 56.76 50.92C56.67 50.95 56.59 51.01 56.54 51.09C56.48 51.17 56.46 51.26 56.46 51.36C56.46 51.46 56.49 51.56 56.54 51.65C56.74 52.1 56.84 52.53 56.84 53.2C56.84 54.78 55.62 56.05 54.14 56.05C52.18 56.05 51.45 54.53 51.31 54.08C51.31 54.05 51.28 54.03 51.26 54.02C51.24 54.01 51.21 54.01 51.18 54.02L48.27 54.92C48.27 54.92 48.22 54.95 48.21 54.97C48.2 54.99 48.19 55.02 48.21 55.05C48.85 57.14 50.91 59.33 54.12 59.33C56.78 59.33 58.99 57.53 59.8 55.11C60.31 53.6 60.15 51.92 59.47 50.53L59.46 50.57Z" fill="white"/>
</g>
<path id="Vector_2" d="M54.05 50.16C53.99 50.16 53.94 50.14 53.89 50.11C53.84 50.08 53.81 50.03 53.79 49.98C53.77 49.93 53.76 49.87 53.77 49.81C53.78 49.75 53.81 49.7 53.85 49.66C53.89 49.62 53.94 49.59 54 49.58C54.06 49.57 54.11 49.58 54.16 49.6C54.21 49.62 54.26 49.66 54.29 49.7C54.32 49.75 54.34 49.8 54.34 49.86C54.34 49.94 54.31 50.01 54.26 50.06C54.21 50.11 54.14 50.14 54.06 50.14L54.05 50.16Z" fill="white"/>
<path id="Vector_3" d="M54.05 47.72C53.99 47.72 53.94 47.7 53.89 47.67C53.84 47.64 53.81 47.59 53.79 47.54C53.77 47.49 53.76 47.43 53.77 47.38C53.78 47.32 53.81 47.27 53.85 47.23C53.89 47.19 53.94 47.16 54 47.15C54.06 47.14 54.11 47.15 54.16 47.17C54.21 47.19 54.26 47.23 54.29 47.28C54.32 47.33 54.34 47.38 54.34 47.44C54.34 47.52 54.31 47.59 54.26 47.64C54.21 47.69 54.14 47.72 54.06 47.72H54.05Z" fill="white"/>
<path id="Vector_4" d="M54.05 48.94C53.99 48.94 53.94 48.92 53.89 48.89C53.84 48.86 53.81 48.81 53.79 48.76C53.77 48.71 53.76 48.65 53.77 48.59C53.78 48.53 53.81 48.48 53.85 48.44C53.89 48.4 53.94 48.37 54 48.36C54.06 48.35 54.11 48.36 54.16 48.38C54.21 48.4 54.26 48.44 54.29 48.48C54.32 48.53 54.34 48.58 54.34 48.64C54.34 48.72 54.31 48.79 54.26 48.84C54.21 48.89 54.14 48.92 54.06 48.92L54.05 48.94Z" fill="white"/>
<path id="Vector_5" d="M56.27 50.3199C56.2 50.2499 56.13 50.1899 56.06 50.1399C55.9 50.0299 55.73 49.9299 55.56 49.8399C55.46 49.7899 55.35 49.7499 55.24 49.7199C55.14 49.6799 55.03 49.6799 54.93 49.7199C54.85 49.7499 54.79 49.8099 54.76 49.8899C54.73 49.9599 54.72 50.0499 54.75 50.1299C54.79 50.2699 54.9 50.3199 55.01 50.3699C55.16 50.4399 55.3 50.5199 55.45 50.6099C55.57 50.6899 55.68 50.7599 55.8 50.8499C55.95 50.9599 56.14 50.9699 56.27 50.8499C56.3 50.8199 56.33 50.7799 56.35 50.7299C56.37 50.6899 56.38 50.6399 56.38 50.5899C56.38 50.5399 56.38 50.4899 56.35 50.4499C56.33 50.3999 56.3 50.3599 56.27 50.3299V50.3199Z" fill="white"/>
<path id="Vector_6" d="M57.29 49.6C57.11 49.41 56.91 49.25 56.68 49.13C56.61 49.09 56.54 49.07 56.47 49.05C56.4 49.03 56.34 49.04 56.27 49.05C56.21 49.07 56.15 49.11 56.11 49.16C56.06 49.22 56.04 49.28 56.03 49.36C56.03 49.43 56.04 49.51 56.08 49.57C56.14 49.67 56.23 49.74 56.32 49.8C56.47 49.91 56.57 49.99 56.7 50.11C56.79 50.19 56.87 50.27 56.99 50.28C57.07 50.28 57.15 50.28 57.22 50.24C57.29 50.2 57.35 50.14 57.38 50.07C57.41 49.99 57.42 49.9 57.41 49.82C57.39 49.74 57.35 49.66 57.29 49.6Z" fill="white"/>
<path id="Vector_7" d="M55.51 48.57C55.42 48.53 55.33 48.5 55.23 48.47C55.14 48.44 55.04 48.44 54.94 48.46C54.89 48.47 54.84 48.5 54.81 48.53C54.77 48.56 54.74 48.61 54.72 48.65C54.7 48.7 54.69 48.75 54.7 48.8C54.7 48.85 54.72 48.9 54.75 48.94C54.8 49.01 54.87 49.06 54.95 49.08C55.02 49.1 55.08 49.12 55.16 49.16C55.22 49.19 55.29 49.21 55.36 49.22C55.41 49.22 55.47 49.22 55.52 49.22C55.57 49.21 55.62 49.18 55.66 49.14C55.84 48.96 55.78 48.68 55.52 48.57H55.51Z" fill="white"/>
<path id="Vector_8" d="M55.22 47.27C55.17 47.26 55.11 47.24 55.06 47.24C54.98 47.24 54.91 47.24 54.84 47.29C54.79 47.32 54.76 47.37 54.73 47.42C54.71 47.47 54.7 47.53 54.71 47.59C54.71 47.65 54.74 47.7 54.78 47.75C54.82 47.8 54.86 47.83 54.92 47.85C54.99 47.88 55.06 47.9 55.13 47.91C55.2 47.91 55.28 47.9 55.34 47.86C55.4 47.82 55.45 47.75 55.47 47.68C55.48 47.64 55.48 47.6 55.47 47.55C55.47 47.51 55.45 47.47 55.43 47.43C55.41 47.39 55.38 47.36 55.35 47.34C55.32 47.31 55.28 47.3 55.24 47.29L55.22 47.27Z" fill="white"/>
<path id="Vector_9" d="M56.73 47.78C56.65 47.73 56.57 47.69 56.48 47.65C56.39 47.61 56.29 47.59 56.19 47.58C56.11 47.58 56.03 47.6 55.96 47.64C55.89 47.69 55.85 47.76 55.83 47.84C55.81 47.92 55.82 48 55.85 48.08C55.88 48.16 55.94 48.21 56.01 48.25L56.23 48.36C56.31 48.41 56.4 48.45 56.48 48.48C56.54 48.49 56.59 48.5 56.65 48.48C56.71 48.47 56.76 48.45 56.8 48.41C57.01 48.25 56.97 47.92 56.73 47.77V47.78Z" fill="white"/>
<path id="Vector_10" d="M58.3401 48.97C58.2601 48.87 58.1701 48.78 58.0801 48.7C57.9901 48.62 57.9001 48.55 57.8001 48.49C57.7001 48.42 57.5801 48.3999 57.4701 48.4199C57.4101 48.4299 57.3501 48.4599 57.3001 48.4999C57.2501 48.5399 57.2201 48.5999 57.2001 48.6599C57.1801 48.7199 57.1801 48.7899 57.2001 48.8499C57.2201 48.9099 57.2401 48.97 57.2901 49.02C57.3601 49.09 57.4201 49.1399 57.5001 49.2099C57.6001 49.2899 57.6901 49.38 57.7801 49.47C57.8201 49.51 57.8601 49.5499 57.9101 49.5699C57.9601 49.5999 58.0101 49.6099 58.0701 49.6199C58.1401 49.6199 58.2101 49.5999 58.2701 49.5699C58.3301 49.5299 58.3801 49.4799 58.4101 49.4199C58.4501 49.3499 58.4601 49.2699 58.4501 49.1899C58.4501 49.1099 58.4101 49.04 58.3601 48.97H58.3401Z" fill="white"/>
<path id="Vector_11" d="M48.6302 49.18C48.7202 49.38 48.8302 49.56 48.9602 49.74C49.0102 49.81 49.0702 49.86 49.1402 49.9C49.2102 49.94 49.2902 49.96 49.3702 49.96C49.6402 49.96 49.8202 49.76 49.8202 49.49C49.8202 49.4 49.7902 49.31 49.7502 49.23C49.7302 49.19 49.6902 49.1 49.6602 49.06C49.6502 49.03 49.6502 49 49.6702 48.99C49.6702 48.99 49.6802 48.99 49.6902 48.99C49.6902 48.99 49.7002 48.99 49.7102 48.99C49.7102 48.99 49.7202 48.99 49.7302 49C49.7302 49 49.7402 49 49.7402 49.02C49.7602 49.06 49.8402 49.18 49.8402 49.18C49.9102 49.29 50.0102 49.36 50.1402 49.39C50.2602 49.42 50.3902 49.4 50.5002 49.34C50.6102 49.28 50.6902 49.17 50.7302 49.06C50.7702 48.94 50.7602 48.81 50.7002 48.7C50.6902 48.67 50.6602 48.62 50.6502 48.59C50.6402 48.56 50.6402 48.53 50.6602 48.52C50.6602 48.52 50.6702 48.52 50.6802 48.52C50.6802 48.52 50.6902 48.52 50.7002 48.52C50.7002 48.52 50.7102 48.52 50.7202 48.52C50.7202 48.52 50.7202 48.53 50.7302 48.54C50.7502 48.57 50.7902 48.63 50.8102 48.65C50.8702 48.73 50.9502 48.79 51.0402 48.82C51.1302 48.85 51.2302 48.85 51.3202 48.82C51.4102 48.79 51.4902 48.73 51.5402 48.65C51.5902 48.57 51.6202 48.47 51.6202 48.38C51.6202 48.28 51.5902 48.18 51.5402 48.09C51.3402 47.64 51.2402 47.21 51.2402 46.54C51.2402 44.96 52.4602 43.69 53.9402 43.69C55.9002 43.69 56.6302 45.21 56.7702 45.66C56.7702 45.69 56.8002 45.71 56.8202 45.72C56.8402 45.73 56.8702 45.73 56.9002 45.72L59.8202 44.82C59.8202 44.82 59.8702 44.79 59.8802 44.77C59.8902 44.75 59.9002 44.72 59.8802 44.69C59.2402 42.6 57.1802 40.41 53.9702 40.41C51.3102 40.41 49.1002 42.21 48.2902 44.63C47.7902 46.14 47.9402 47.82 48.6302 49.21V49.18Z" fill="white"/>
<path id="Vector_12" d="M54.04 52.03C54.1 52.03 54.15 52.05 54.2 52.08C54.25 52.11 54.28 52.16 54.3 52.21C54.32 52.26 54.33 52.32 54.32 52.38C54.31 52.44 54.28 52.49 54.24 52.53C54.2 52.57 54.15 52.6 54.1 52.61C54.05 52.62 53.99 52.61 53.94 52.59C53.89 52.57 53.84 52.53 53.81 52.49C53.78 52.44 53.76 52.39 53.76 52.33C53.76 52.25 53.79 52.18 53.84 52.13C53.89 52.08 53.97 52.05 54.04 52.05V52.03Z" fill="white"/>
<path id="Vector_13" d="M54.04 50.8101C54.1 50.8101 54.15 50.8301 54.2 50.8601C54.25 50.8901 54.28 50.9401 54.3 50.9901C54.32 51.0401 54.33 51.1001 54.32 51.1601C54.31 51.2201 54.28 51.2701 54.24 51.3101C54.2 51.3501 54.15 51.3801 54.09 51.3901C54.03 51.4001 53.98 51.3901 53.93 51.3701C53.88 51.3501 53.83 51.3101 53.8 51.2701C53.77 51.2201 53.75 51.1701 53.75 51.1101C53.75 51.0701 53.75 51.0401 53.77 51.0001C53.79 50.9601 53.8 50.9301 53.83 50.9101C53.86 50.8801 53.89 50.8601 53.92 50.8501C53.95 50.8401 53.99 50.8301 54.03 50.8301L54.04 50.8101Z" fill="white"/>
<path id="Vector_14" d="M51.81 49.43C51.88 49.5 51.95 49.56 52.02 49.61C52.18 49.72 52.35 49.82 52.52 49.91C52.62 49.96 52.73 50 52.84 50.03C52.94 50.07 53.05 50.07 53.15 50.03C53.23 50 53.29 49.94 53.32 49.87C53.35 49.8 53.36 49.71 53.34 49.63C53.3 49.49 53.19 49.44 53.08 49.38C52.93 49.31 52.78 49.23 52.64 49.14C52.52 49.06 52.41 48.99 52.29 48.9C52.14 48.79 51.95 48.78 51.82 48.9C51.79 48.93 51.76 48.97 51.74 49.02C51.72 49.07 51.71 49.11 51.71 49.16C51.71 49.21 51.71 49.26 51.74 49.3C51.76 49.35 51.78 49.39 51.82 49.42L51.81 49.43Z" fill="white"/>
<path id="Vector_15" d="M50.8002 50.15C50.9802 50.34 51.1902 50.5 51.4102 50.62C51.4802 50.66 51.5502 50.69 51.6202 50.7C51.6802 50.72 51.7502 50.71 51.8202 50.7C51.8802 50.68 51.9402 50.64 51.9802 50.59C52.0302 50.53 52.0502 50.47 52.0602 50.39C52.0602 50.32 52.0502 50.24 52.0102 50.18C51.9502 50.08 51.8602 50 51.7702 49.95C51.6202 49.84 51.5202 49.76 51.3802 49.64C51.2902 49.56 51.2202 49.48 51.0902 49.47C51.0102 49.46 50.9302 49.47 50.8602 49.51C50.7902 49.55 50.7302 49.61 50.7002 49.68C50.6702 49.76 50.6502 49.85 50.6702 49.93C50.6902 50.01 50.7302 50.09 50.7902 50.15H50.8002Z" fill="white"/>
<path id="Vector_16" d="M52.5801 51.19C52.6701 51.23 52.7601 51.26 52.8601 51.29C52.9601 51.32 53.0501 51.32 53.1501 51.3C53.2001 51.29 53.2501 51.26 53.2801 51.23C53.3201 51.2 53.3501 51.15 53.3701 51.11C53.3901 51.06 53.4001 51.01 53.3901 50.96C53.3901 50.91 53.3701 50.86 53.3401 50.82C53.2901 50.75 53.2201 50.7 53.1401 50.68L52.9301 50.6C52.8701 50.57 52.8001 50.55 52.7401 50.54C52.6901 50.54 52.6301 50.54 52.5801 50.54C52.5301 50.55 52.4801 50.58 52.4501 50.62C52.2701 50.79 52.3301 51.08 52.5901 51.19H52.5801Z" fill="white"/>
<path id="Vector_17" d="M52.8701 52.48C52.9201 52.49 52.9801 52.5 53.0301 52.51C53.1101 52.51 53.1901 52.51 53.2501 52.46C53.3001 52.43 53.3301 52.38 53.3601 52.33C53.3801 52.28 53.3901 52.22 53.3901 52.16C53.3901 52.1 53.3601 52.05 53.3201 52C53.2801 51.95 53.2401 51.92 53.1801 51.9C53.1101 51.87 53.0401 51.85 52.9701 51.84C52.8901 51.84 52.8201 51.86 52.7501 51.91C52.6901 51.96 52.6501 52.03 52.6401 52.11C52.6301 52.19 52.6401 52.27 52.6801 52.33C52.7201 52.4 52.7901 52.44 52.8601 52.47L52.8701 52.48Z" fill="white"/>
<path id="Vector_18" d="M51.3601 51.97C51.4401 52.02 51.5201 52.06 51.6101 52.1C51.7001 52.14 51.8001 52.16 51.9001 52.17C51.9801 52.17 52.0601 52.15 52.1301 52.11C52.2001 52.06 52.2401 51.99 52.2701 51.91C52.2901 51.83 52.2801 51.75 52.2501 51.67C52.2201 51.59 52.1601 51.53 52.0801 51.5L51.8601 51.39C51.7801 51.34 51.7001 51.3 51.6101 51.27C51.5601 51.26 51.5001 51.25 51.4401 51.27C51.3801 51.28 51.3301 51.3 51.2901 51.34C51.0801 51.51 51.1201 51.83 51.3601 51.98V51.97Z" fill="white"/>
<path id="Vector_19" d="M49.7501 50.78C49.8301 50.88 49.9201 50.97 50.0101 51.05C50.1001 51.13 50.1901 51.2 50.2901 51.26C50.3901 51.32 50.5101 51.35 50.6201 51.33C50.6801 51.32 50.7401 51.29 50.7901 51.25C50.8401 51.21 50.8801 51.15 50.8901 51.09C50.9101 51.03 50.9101 50.96 50.8901 50.9C50.8701 50.84 50.8401 50.78 50.8001 50.73C50.7301 50.66 50.6601 50.6 50.5901 50.54C50.4901 50.46 50.4001 50.37 50.3101 50.28C50.2701 50.24 50.2301 50.2 50.1801 50.17C50.1301 50.14 50.0801 50.13 50.0201 50.12C49.9501 50.12 49.8801 50.14 49.8201 50.17C49.7601 50.21 49.7101 50.26 49.6801 50.32C49.6401 50.39 49.6301 50.47 49.6401 50.55C49.6501 50.63 49.6801 50.7 49.7301 50.77L49.7501 50.78Z" fill="white"/>
<path id="Vector_20" d="M81.4802 46.9C80.3602 46.9 79.0802 47.28 78.3202 48.19V41.75C78.3202 41.75 78.3102 41.7 78.2902 41.68C78.2702 41.66 78.2502 41.65 78.2202 41.65H75.2602C75.2602 41.65 75.2302 41.65 75.2202 41.65C75.2102 41.65 75.2002 41.66 75.1902 41.67C75.1902 41.67 75.1702 41.69 75.1702 41.7C75.1702 41.71 75.1702 41.72 75.1702 41.74V58.88C75.1702 58.88 75.1702 58.91 75.1702 58.92C75.1702 58.93 75.1802 58.94 75.1902 58.95C75.2002 58.96 75.2102 58.97 75.2202 58.97C75.2302 58.97 75.2502 58.97 75.2602 58.97H78.2202C78.2202 58.97 78.2702 58.96 78.2902 58.94C78.3102 58.92 78.3202 58.9 78.3202 58.87V52.05C78.3102 50.73 79.0602 49.7 80.5102 49.7C82.0302 49.7 82.6802 50.78 82.6802 52.1V58.87C82.6802 58.87 82.6802 58.9 82.6802 58.91C82.6802 58.92 82.6902 58.93 82.7002 58.94C82.7102 58.95 82.7202 58.96 82.7302 58.96C82.7402 58.96 82.7602 58.96 82.7702 58.96H85.7302C85.7302 58.96 85.7802 58.95 85.8002 58.93C85.8202 58.91 85.8302 58.89 85.8302 58.86V51.53C85.8302 48.94 84.4502 46.86 81.4802 46.86V46.9Z" fill="white"/>
<path id="Vector_21" d="M90.1402 41.36C89.8802 41.36 89.6302 41.41 89.3902 41.51C89.1502 41.61 88.9302 41.76 88.7502 41.94C88.5702 42.13 88.4202 42.34 88.3202 42.59C88.2202 42.83 88.1702 43.09 88.1702 43.35C88.1702 44.41 89.0502 45.29 90.1202 45.29C90.4002 45.29 90.6702 45.23 90.9202 45.12C91.1702 45.01 91.4002 44.84 91.5802 44.63C91.7602 44.42 91.9002 44.18 91.9802 43.91C92.0602 43.65 92.0902 43.36 92.0502 43.09C91.9202 42.12 91.1002 41.36 90.1302 41.35L90.1402 41.36Z" fill="white"/>
<path id="Vector_22" d="M91.6201 47.21H88.6601C88.6001 47.21 88.5601 47.26 88.5601 47.31V58.89C88.5601 58.95 88.6101 58.99 88.6601 58.99H91.6201C91.6801 58.99 91.7201 58.94 91.7201 58.89V47.31C91.7201 47.25 91.6801 47.21 91.6201 47.21Z" fill="white"/>
<path id="Vector_23" d="M101.11 46.9C99.37 46.9 98.09 47.67 97.56 48.5V41.75C97.56 41.75 97.56 41.72 97.56 41.71C97.56 41.7 97.55 41.69 97.54 41.68C97.53 41.68 97.52 41.66 97.51 41.66C97.5 41.66 97.48 41.66 97.47 41.66H94.55C94.55 41.66 94.52 41.66 94.51 41.66C94.5 41.66 94.49 41.67 94.48 41.68C94.48 41.68 94.46 41.7 94.46 41.71C94.46 41.72 94.46 41.73 94.46 41.75V58.89C94.46 58.89 94.46 58.92 94.46 58.93C94.46 58.94 94.47 58.95 94.48 58.96C94.48 58.97 94.5 58.98 94.51 58.98C94.52 58.98 94.54 58.98 94.55 58.98H97.42C97.42 58.98 97.45 58.98 97.46 58.98C97.47 58.98 97.48 58.97 97.49 58.96C97.49 58.96 97.51 58.94 97.51 58.93C97.51 58.92 97.51 58.9 97.51 58.89V57.56C98.13 58.57 99.37 59.28 100.98 59.28C104.31 59.28 106.5 56.62 106.5 53.05C106.5 49.55 104.53 46.89 101.1 46.89L101.11 46.9ZM100.44 56.46C98.84 56.46 97.49 55.21 97.49 53.08C97.49 50.95 98.85 49.73 100.44 49.73C102.03 49.73 103.34 50.93 103.34 53.08C103.34 55.23 102.06 56.46 100.44 56.46Z" fill="white"/>
<path id="Vector_24" d="M125.46 56.27C125.18 56.32 124.89 56.34 124.6 56.34C123.7 56.34 123.22 56 123.22 54.97V50.0299H125.47C125.47 50.0299 125.5 50.0299 125.51 50.0299C125.52 50.0299 125.53 50.0199 125.54 50.0099C125.54 50.0099 125.56 49.99 125.56 49.9799C125.56 49.9699 125.56 49.9499 125.56 49.9399V47.32C125.56 47.32 125.55 47.27 125.53 47.25C125.51 47.23 125.48 47.22 125.46 47.22H123.21V43.7999C123.21 43.7999 123.2 43.7499 123.18 43.7299C123.16 43.7099 123.14 43.7 123.11 43.7H120.18C120.18 43.7 120.13 43.7099 120.11 43.7299C120.09 43.7499 120.08 43.7799 120.08 43.7999V47.22H118.05C118.05 47.22 118 47.23 117.98 47.25C117.96 47.27 117.95 47.3 117.95 47.32V49.9399C117.95 49.9399 117.95 49.9699 117.95 49.9799C117.95 49.99 117.96 49.9999 117.97 50.0099C117.97 50.0099 117.99 50.0299 118 50.0299C118.01 50.0299 118.03 50.0299 118.04 50.0299H120.06V55.52C120.06 57.8 121.49 59.16 123.77 59.16C124.63 59.16 125.18 59.02 125.49 58.9C125.51 58.9 125.53 58.88 125.54 58.86C125.55 58.84 125.56 58.82 125.56 58.7999V56.36C125.56 56.36 125.56 56.33 125.56 56.32C125.56 56.3099 125.55 56.29 125.53 56.29C125.52 56.29 125.51 56.27 125.49 56.27C125.48 56.27 125.46 56.27 125.45 56.27H125.46Z" fill="white"/>
<path id="Vector_25" d="M151.9 41.65H148.95C148.95 41.65 148.92 41.65 148.91 41.65C148.9 41.65 148.89 41.66 148.88 41.67C148.88 41.68 148.86 41.69 148.86 41.7C148.86 41.71 148.86 41.73 148.86 41.74V48.37C148.53 47.75 147.57 46.91 145.55 46.91C142.24 46.91 139.93 49.62 139.93 53.07C139.93 56.52 142.31 59.28 145.64 59.28C147.21 59.28 148.4 58.56 148.92 57.63V58.89C148.92 58.89 148.94 58.94 148.96 58.96C148.98 58.98 149 58.99 149.03 58.99H151.9C151.9 58.99 151.95 58.98 151.97 58.96C151.99 58.94 152 58.92 152 58.89V41.75C152 41.75 151.99 41.7 151.97 41.68C151.95 41.66 151.92 41.65 151.9 41.65ZM146.02 56.46C144.35 56.46 143.12 55.19 143.12 53.08C143.12 50.97 144.41 49.75 146.02 49.75C147.63 49.75 148.93 50.95 148.93 53.06C148.93 55.19 147.63 56.46 146.01 56.46H146.02Z" fill="white"/>
<path id="Vector_26" d="M132.66 46.85C129.66 46.85 126.9 49.29 126.9 53.06C126.9 57.04 129.73 59.36 132.94 59.36C135.34 59.36 137.02 58.18 137.87 56.61C137.87 56.6 137.88 56.58 137.88 56.57C137.88 56.55 137.88 56.54 137.88 56.53C137.88 56.52 137.87 56.5 137.86 56.49C137.86 56.49 137.84 56.47 137.83 56.47L135.46 55.43C135.46 55.43 135.41 55.42 135.39 55.43C135.37 55.43 135.35 55.45 135.33 55.47C134.88 56.17 134.13 56.63 132.98 56.63C131.41 56.63 130.1 55.5 130.03 53.95H138.31C138.31 53.95 138.36 53.95 138.38 53.92C138.4 53.9 138.41 53.88 138.41 53.85C138.42 53.68 138.45 53.31 138.45 52.96C138.45 49.17 136.29 46.85 132.67 46.85H132.66ZM130.09 51.76C130.16 50.68 131.07 49.44 132.71 49.44C134.52 49.44 135.28 50.59 135.33 51.76H130.1H130.09Z" fill="white"/>
<path id="Vector_27" d="M113.76 51.82L112.09 51.46C111.45 51.34 111.02 51.01 111.02 50.44C111.02 49.77 111.69 49.27 112.52 49.27C113.66 49.27 114.19 49.92 114.38 50.55C114.38 50.56 114.39 50.57 114.4 50.59C114.4 50.59 114.42 50.61 114.43 50.61C114.44 50.61 114.46 50.61 114.47 50.62C114.48 50.62 114.5 50.62 114.51 50.62L116.87 49.7C116.87 49.7 116.92 49.67 116.93 49.65C116.94 49.63 116.94 49.6 116.93 49.57C116.51 48.34 115.27 46.86 112.49 46.86C109.97 46.86 108.11 48.61 108.11 50.72C108.11 52.37 109.13 53.78 111.39 54.29L112.94 54.65C113.84 54.84 114.2 55.22 114.2 55.75C114.2 56.37 113.7 56.92 112.65 56.92C111.32 56.92 110.64 56.12 110.52 55.23C110.52 55.22 110.52 55.2 110.51 55.19C110.51 55.18 110.49 55.17 110.48 55.16C110.47 55.16 110.45 55.15 110.44 55.14C110.43 55.14 110.41 55.14 110.4 55.14L107.89 55.7C107.89 55.7 107.84 55.72 107.83 55.74C107.82 55.76 107.81 55.79 107.81 55.81C108 57.16 109.23 59.36 112.68 59.36C115.75 59.36 117.22 57.39 117.22 55.48C117.22 53.75 116.06 52.31 113.75 51.83L113.76 51.82Z" fill="white"/>
<path id="Vector_28" d="M73.28 55.35L70.69 54.48C70.69 54.48 70.66 54.48 70.65 54.48C70.64 54.48 70.62 54.48 70.61 54.49C70.6 54.49 70.59 54.5 70.58 54.51C70.58 54.52 70.56 54.53 70.56 54.55C70.27 55.44 69.46 56.44 67.9 56.44C66.34 56.44 64.9 55.24 64.9 53.11C64.9 50.98 66.26 49.8 67.87 49.8C69.22 49.8 69.95 50.54 70.31 51.37C70.32 51.39 70.34 51.41 70.36 51.42C70.38 51.43 70.41 51.43 70.43 51.42L73.08 50.5C73.08 50.5 73.12 50.47 73.14 50.45C73.15 50.43 73.15 50.4 73.14 50.37C72.49 48.54 70.73 46.85 67.78 46.85C64.38 46.85 61.71 49.46 61.71 53.1C61.71 56.74 64.42 59.35 67.87 59.35C70.94 59.35 72.76 57.4 73.32 55.47C73.32 55.44 73.32 55.42 73.32 55.39C73.31 55.37 73.29 55.35 73.26 55.34L73.28 55.35Z" fill="white"/>
<path id="Vector_29" d="M66.74 15.71V7.55003H63.76V5.91003H71.49V7.55003H68.54L68.57 15.71H66.75H66.74Z" fill="white"/>
<path id="Vector_30" d="M74.88 15.89C72.51 15.89 71.04 14.22 71.04 11.89C71.04 9.56002 72.52 7.90002 74.88 7.90002C77.24 7.90002 78.7 9.57002 78.7 11.89C78.7 14.21 77.23 15.89 74.88 15.89ZM74.88 14.35C76.17 14.35 76.99 13.24 76.99 11.89C76.99 10.54 76.16 9.44002 74.88 9.44002C73.6 9.44002 72.75 10.55 72.75 11.89C72.75 13.23 73.58 14.35 74.88 14.35Z" fill="white"/>
<path id="Vector_31" d="M80.23 15.71V8.09001H81.91V8.93002C82.33 8.22002 83 7.89001 83.84 7.89001C84.23 7.89001 84.5 7.95002 84.76 8.10002V9.72002C84.56 9.64002 84.35 9.57001 83.84 9.57001C82.61 9.57001 81.94 10.27 81.94 11.28V15.7H80.23V15.71Z" fill="white"/>
<path id="Vector_32" d="M86.77 7.06C86.17 7.06 85.73 6.64 85.73 6.04C85.73 5.44 86.16 5 86.77 5C87.38 5 87.79 5.43 87.79 6.04C87.79 6.65 87.38 7.06 86.77 7.06ZM85.9 15.71V8.08H87.61V15.71H85.9Z" fill="white"/>
<path id="Vector_33" d="M96.5299 15.89C94.1599 15.89 92.6899 14.22 92.6899 11.89C92.6899 9.56002 94.1699 7.90002 96.5299 7.90002C98.8899 7.90002 100.35 9.57002 100.35 11.89C100.35 14.21 98.8799 15.89 96.5299 15.89ZM96.5299 14.35C97.8199 14.35 98.6399 13.24 98.6399 11.89C98.6399 10.54 97.8099 9.44002 96.5299 9.44002C95.2499 9.44002 94.3999 10.55 94.3999 11.89C94.3999 13.23 95.2299 14.35 96.5299 14.35Z" fill="white"/>
<path id="Vector_34" d="M101.88 15.71V8.08001H103.6V8.86001H103.61C104 8.33001 104.67 7.89001 105.63 7.89001C107.65 7.89001 108.5 9.37001 108.5 11V15.7H106.78V11.15C106.78 10.18 106.33 9.43002 105.3 9.43002C104.45 9.43002 103.61 10.03 103.61 11.25V15.7H101.89L101.88 15.71Z" fill="white"/>
<path id="Vector_35" d="M117.36 15.89C114.99 15.89 113.52 14.22 113.52 11.89C113.52 9.56002 115 7.90002 117.36 7.90002C119.72 7.90002 121.18 9.57002 121.18 11.89C121.18 14.21 119.71 15.89 117.36 15.89ZM117.36 14.35C118.65 14.35 119.47 13.24 119.47 11.89C119.47 10.54 118.64 9.44002 117.36 9.44002C116.08 9.44002 115.23 10.55 115.23 11.89C115.23 13.23 116.06 14.35 117.36 14.35Z" fill="white"/>
<path id="Vector_36" d="M125.22 15.86C124.21 15.86 123.01 15.48 122.27 14.89L122.91 13.6C123.67 14.13 124.44 14.41 125.25 14.41C126.13 14.41 126.44 13.96 126.44 13.6C126.44 13.26 126.24 12.97 125.57 12.75L124.73 12.46C123.16 11.9 122.43 11.3 122.43 10.12C122.43 8.94001 123.42 7.89001 125.4 7.89001C126.39 7.89001 127.14 8.10001 127.64 8.38001V9.96001C127.05 9.58001 126.3 9.34001 125.47 9.34001C124.5 9.34001 124.15 9.68001 124.15 10.08C124.15 10.48 124.49 10.68 125.05 10.88L125.93 11.19C127.54 11.76 128.16 12.53 128.16 13.61C128.16 14.76 127.17 15.85 125.22 15.85V15.86Z" fill="white"/>
<path id="Vector_37" d="M131.92 15.86C130.27 15.86 129.32 14.96 129.32 13.51C129.32 12.29 130.2 11.21 132.19 11.21C132.83 11.21 133.41 11.34 133.84 11.48V10.89C133.84 10.04 133.36 9.35002 131.99 9.35002C131.09 9.35002 130.38 9.62002 129.81 10.08V8.67002C130.33 8.21002 131.25 7.90002 132.13 7.90002C134.47 7.90002 135.48 9.08002 135.48 10.76V15.72H133.87V14.91H133.84C133.43 15.57 132.69 15.88 131.92 15.88V15.86ZM132.27 14.5C133.01 14.5 133.87 14.14 133.87 13.21V12.76C133.46 12.58 133.09 12.48 132.33 12.48C131.35 12.48 130.89 12.91 130.89 13.47C130.89 14.13 131.45 14.49 132.28 14.49L132.27 14.5Z" fill="white"/>
<path id="Vector_38" d="M36.2101 32.89C34.8501 32.89 33.4901 32.37 32.8101 31.7L33.4101 30.19C34.2901 30.89 35.2601 31.3 36.2501 31.3C37.3301 31.3 37.9601 30.78 37.9601 30.1C37.9601 29.5 37.6201 29.13 36.8501 28.84L35.0401 28.14C33.8801 27.69 33.0801 26.87 33.0801 25.63C33.0801 23.92 34.3401 22.73 36.5401 22.73C37.6001 22.73 38.4401 22.98 39.0901 23.29V24.97C38.2601 24.56 37.5201 24.33 36.5301 24.33C35.4801 24.33 34.8901 24.79 34.8901 25.46C34.8901 25.95 35.2101 26.26 35.7401 26.48L37.4901 27.15C38.9701 27.72 39.7601 28.66 39.7601 30.01C39.7601 31.79 38.2801 32.89 36.2001 32.89H36.2101Z" fill="white"/>
<path id="Vector_39" d="M44.7702 32.89C42.5002 32.89 40.9202 31.42 40.9202 28.97C40.9202 26.52 42.5302 24.9 44.6602 24.9C45.6102 24.9 46.1002 25.12 46.5602 25.35V26.86C46.1402 26.61 45.6602 26.44 44.9402 26.44C43.6502 26.44 42.6302 27.39 42.6302 28.97C42.6302 30.41 43.6102 31.36 44.9402 31.36C45.4702 31.36 45.8902 31.22 46.3002 30.94L46.9202 32.16C46.3702 32.59 45.6502 32.89 44.7802 32.89H44.7702Z" fill="white"/>
<path id="Vector_40" d="M52.1502 24.9C54.1802 24.9 55.0202 26.38 55.0202 28.01V32.71H53.3102V28.16C53.3102 27.19 52.8602 26.44 51.8302 26.44C50.9802 26.44 50.1202 27.04 50.1202 28.26V32.71H48.4102V22.25H50.1202V25.86H50.1502C50.5302 25.33 51.2102 24.89 52.1502 24.89V24.9Z" fill="white"/>
<path id="Vector_41" d="M57.79 24.06C57.19 24.06 56.75 23.64 56.75 23.04C56.75 22.44 57.18 22 57.79 22C58.4 22 58.81 22.43 58.81 23.04C58.81 23.65 58.4 24.06 57.79 24.06ZM56.92 32.71V25.08H58.63V32.71H56.92Z" fill="white"/>
<path id="Vector_42" d="M64.52 24.9C66.54 24.9 67.75 26.57 67.75 28.89C67.75 31.21 66.4201 32.89 64.4001 32.89C63.5301 32.89 62.8301 32.47 62.5401 32.08H62.51V32.71H60.8V22.25H62.51V25.85H62.5401C62.9301 25.28 63.6701 24.9 64.5101 24.9H64.52ZM64.06 31.42C65.14 31.42 66.0501 30.51 66.0501 28.83C66.0501 27.43 65.34 26.44 64.24 26.44C63.36 26.44 62.6301 27.08 62.5201 28.06V30.68C62.7901 31.04 63.22 31.42 64.06 31.42Z" fill="white"/>
<path id="Vector_43" d="M71.8001 32.86C70.7901 32.86 69.5901 32.48 68.8501 31.89L69.4901 30.6C70.2501 31.13 71.0201 31.41 71.8301 31.41C72.7101 31.41 73.0201 30.96 73.0201 30.6C73.0201 30.26 72.8201 29.97 72.1501 29.75L71.3101 29.46C69.7401 28.9 69.0101 28.3 69.0101 27.12C69.0101 25.94 70.0001 24.89 71.9801 24.89C72.9701 24.89 73.7201 25.1 74.2201 25.38V26.96C73.6301 26.58 72.8801 26.34 72.0501 26.34C71.0801 26.34 70.7301 26.68 70.7301 27.08C70.7301 27.48 71.0701 27.68 71.6301 27.88L72.5101 28.19C74.1201 28.76 74.7401 29.53 74.7401 30.61C74.7401 31.76 73.7501 32.85 71.8001 32.85V32.86Z" fill="white"/>
<path id="Vector_44" d="M79.2599 32.89C77.6399 32.89 76.8499 32.02 76.8499 30.58V26.62H75.4399V25.08H76.8499V23.08H78.5699V25.08H80.8499V26.62H78.5699V30.46C78.5699 31.05 78.9299 31.33 79.4899 31.33C79.7799 31.33 80.0599 31.22 80.2899 31.06L80.9899 32.31C80.5599 32.65 79.9699 32.9 79.2499 32.9L79.2599 32.89Z" fill="white"/>
<path id="Vector_45" d="M85.5001 32.89C83.1101 32.89 81.8201 31.28 81.8201 28.89C81.8201 26.5 83.2601 24.91 85.3501 24.91C87.4401 24.91 88.7501 26.46 88.7501 28.63C88.7501 28.83 88.7401 29.09 88.7101 29.43H83.4501C83.5301 30.62 84.2901 31.5 85.6901 31.5C86.4501 31.5 87.0301 31.32 87.6101 30.86L88.2501 31.99C87.5401 32.55 86.6101 32.89 85.5101 32.89H85.5001ZM83.4601 28.12H87.1101C87.1101 27.08 86.3701 26.3 85.3501 26.3C84.2701 26.3 83.5901 27.07 83.4601 28.12Z" fill="white"/>
<path id="Vector_46" d="M95.18 22.25H96.89V32.71H95.18V31.94H95.17C94.78 32.53 94.04 32.89 93.21 32.89C91.18 32.89 89.96 31.24 89.96 28.9C89.96 26.56 91.29 24.9 93.31 24.9C94.18 24.9 94.88 25.32 95.17 25.73H95.18V22.26V22.25ZM93.47 31.36C94.34 31.36 95.04 30.76 95.18 29.83V27.1C94.93 26.74 94.48 26.37 93.65 26.37C92.57 26.37 91.66 27.28 91.66 28.95C91.66 30.35 92.37 31.36 93.47 31.36Z" fill="white"/>
<path id="Vector_47" d="M98.53 29.5999V28.0699H102.2V29.5999H98.53Z" fill="white"/>
<path id="Vector_48" d="M103.83 32.71V22.25H105.54V27.96L108.1 25.08H110.13L107.12 28.47L110.24 32.71H108.22L105.53 29.07V32.71H103.82H103.83Z" fill="white"/>
<path id="Vector_49" d="M114.37 32.89C112 32.89 110.53 31.22 110.53 28.89C110.53 26.56 112.01 24.9 114.37 24.9C116.73 24.9 118.19 26.57 118.19 28.89C118.19 31.21 116.72 32.89 114.37 32.89ZM114.37 31.35C115.66 31.35 116.48 30.24 116.48 28.89C116.48 27.54 115.65 26.44 114.37 26.44C113.09 26.44 112.24 27.55 112.24 28.89C112.24 30.23 113.07 31.35 114.37 31.35Z" fill="white"/>
<path id="Vector_50" d="M119.72 32.71V25.08H121.44V25.86H121.45C121.84 25.33 122.51 24.89 123.47 24.89C125.49 24.89 126.34 26.37 126.34 28V32.7H124.62V28.15C124.62 27.18 124.17 26.43 123.14 26.43C122.29 26.43 121.45 27.03 121.45 28.25V32.7H119.73L119.72 32.71Z" fill="white"/>
<path id="Vector_51" d="M130.76 32.86C129.75 32.86 128.55 32.48 127.81 31.89L128.45 30.6C129.21 31.13 129.98 31.41 130.79 31.41C131.67 31.41 131.98 30.96 131.98 30.6C131.98 30.26 131.78 29.97 131.11 29.75L130.27 29.46C128.7 28.9 127.97 28.3 127.97 27.12C127.97 25.94 128.96 24.89 130.94 24.89C131.93 24.89 132.68 25.1 133.18 25.38V26.96C132.59 26.58 131.84 26.34 131.01 26.34C130.04 26.34 129.69 26.68 129.69 27.08C129.69 27.48 130.03 27.68 130.59 27.88L131.47 28.19C133.08 28.76 133.7 29.53 133.7 30.61C133.7 31.76 132.71 32.85 130.76 32.85V32.86Z" fill="white"/>
<path id="Vector_52" d="M138.48 32.89C136.09 32.89 134.8 31.28 134.8 28.89C134.8 26.5 136.24 24.91 138.33 24.91C140.42 24.91 141.73 26.46 141.73 28.63C141.73 28.83 141.72 29.09 141.69 29.43H136.43C136.51 30.62 137.27 31.5 138.67 31.5C139.43 31.5 140.01 31.32 140.59 30.86L141.23 31.99C140.52 32.55 139.59 32.89 138.49 32.89H138.48ZM136.44 28.12H140.09C140.09 27.08 139.35 26.3 138.33 26.3C137.25 26.3 136.57 27.07 136.44 28.12Z" fill="white"/>
<path id="Vector_53" d="M143.1 32.71V25.09H144.78V25.93C145.2 25.22 145.87 24.89 146.71 24.89C147.1 24.89 147.37 24.95 147.63 25.1V26.72C147.43 26.64 147.22 26.57 146.71 26.57C145.48 26.57 144.81 27.27 144.81 28.28V32.7H143.1V32.71Z" fill="white"/>
<path id="Vector_54" d="M148.77 32.71V25.08H150.49V25.86H150.5C150.89 25.33 151.56 24.89 152.52 24.89C154.54 24.89 155.39 26.37 155.39 28V32.7H153.67V28.15C153.67 27.18 153.22 26.43 152.19 26.43C151.34 26.43 150.5 27.03 150.5 28.25V32.7H148.78L148.77 32.71Z" fill="white"/>
<path id="Vector_55" d="M158.16 24.06C157.56 24.06 157.12 23.64 157.12 23.04C157.12 22.44 157.55 22 158.16 22C158.77 22 159.18 22.43 159.18 23.04C159.18 23.65 158.77 24.06 158.16 24.06ZM157.29 32.71V25.08H159V32.71H157.29Z" fill="white"/>
<path id="Vector_56" d="M163.16 32.86C161.51 32.86 160.56 31.96 160.56 30.51C160.56 29.29 161.44 28.21 163.43 28.21C164.07 28.21 164.65 28.34 165.08 28.48V27.89C165.08 27.04 164.6 26.35 163.23 26.35C162.33 26.35 161.62 26.62 161.05 27.08V25.67C161.57 25.21 162.49 24.9 163.37 24.9C165.71 24.9 166.72 26.08 166.72 27.76V32.72H165.11V31.91H165.08C164.67 32.57 163.93 32.88 163.16 32.88V32.86ZM163.51 31.5C164.25 31.5 165.11 31.14 165.11 30.21V29.76C164.7 29.58 164.33 29.48 163.57 29.48C162.59 29.48 162.13 29.91 162.13 30.47C162.13 31.13 162.69 31.49 163.52 31.49L163.51 31.5Z" fill="white"/>
</g>
</g>
</g>
<defs>
<clipPath id="clip0_8716_10839">
<rect width="200" height="80" fill="white"/>
</clipPath>
</defs>
</svg>
